# xmcd
#
# Track frame offsets:
#	151
#	16846
#	34644
#	58871
#	82526
#	108051
#	127779
#	165846
#	193332
#	212707
#
# Disc length: 3076 seconds
#
# Revision: 0
# Processed by: cddbd v1.5.1PL2 Copyright (c) Steve Scherf et al.
# Submitted via: SynApp - FreeCDDB Version: 2.0
#
DISCID=6c0c020a
DTITLE=BBM - Around the next dream
DYEAR=1994
DGENRE=Blues
TTITLE0=Waiting in the wings
TTITLE1=City of Gold
TTITLE2=Where in the world
TTITLE3=Can't fool the Blues
TTITLE4=High cost of loving
TTITLE5=Glory days
TTITLE6=Why does love (have to go wrong)
TTITLE7=Naked flame
TTITLE8=I wonder why ( are you so mean to me)
TTITLE9=Wrong side of town
EXTD=
EXTT0=
EXTT1=
EXTT2=
EXTT3=
EXTT4=
EXTT5=
EXTT6=
EXTT7=
EXTT8=
EXTT9=
PLAYORDER=
